<svg width="1200" height="630" viewBox="0 0 1200 630" fill="none" xmlns="http://www.w3.org/2000/svg">
  <defs>
    <linearGradient id="bg" x1="0" y1="0" x2="1200" y2="630" gradientUnits="userSpaceOnUse">
      <stop stop-color="#082F49"/>
      <stop offset="1" stop-color="#111827"/>
    </linearGradient>
    <radialGradient id="glow" cx="0" cy="0" r="1" gradientUnits="userSpaceOnUse" gradientTransform="translate(950 110) rotate(132.803) scale(493.009 638.533)">
      <stop stop-color="#38BDF8" stop-opacity="0.48"/>
      <stop offset="1" stop-color="#38BDF8" stop-opacity="0"/>
    </radialGradient>
    <radialGradient id="glow2" cx="0" cy="0" r="1" gradientUnits="userSpaceOnUse" gradientTransform="translate(220 560) rotate(-25) scale(410 290)">
      <stop stop-color="#FFFFFF" stop-opacity="0.12"/>
      <stop offset="1" stop-color="#FFFFFF" stop-opacity="0"/>
    </radialGradient>
  </defs>
  <rect width="1200" height="630" rx="32" fill="url(#bg)"/>
  <rect width="1200" height="630" rx="32" fill="url(#glow)"/>
  <rect width="1200" height="630" rx="32" fill="url(#glow2)"/>
  <g opacity="0.18" stroke="#F4F4F5">
    <path d="M0 112H1200"/>
    <path d="M0 224H1200"/>
    <path d="M0 336H1200"/>
    <path d="M0 448H1200"/>
    <path d="M0 560H1200"/>
    <path d="M171 0V630"/>
    <path d="M342 0V630"/>
    <path d="M513 0V630"/>
    <path d="M684 0V630"/>
    <path d="M855 0V630"/>
    <path d="M1026 0V630"/>
  </g>
  <rect x="70" y="64" width="170" height="42" rx="21" fill="#FFFFFF" fill-opacity="0.08" stroke="#FFFFFF" stroke-opacity="0.16"/>
  <text x="155" y="91" text-anchor="middle" fill="#F4F4F5" font-family="Arial, Helvetica, sans-serif" font-size="18" letter-spacing="2">GAMES</text>
  <text x="70" y="252" fill="#FFFFFF" font-family="Arial, Helvetica, sans-serif" font-size="88" font-weight="700">Games</text>
  <text x="70" y="320" fill="#D4D4D8" font-family="Arial, Helvetica, sans-serif" font-size="30">Social multiplayer games without a moderator</text>
  <rect x="70" y="498" width="1060" height="1" fill="#FFFFFF" fill-opacity="0.18"/>
  <text x="70" y="548" fill="#FFFFFF" font-family="Arial, Helvetica, sans-serif" font-size="34" font-weight="700">Timurhan Kaya</text>
  <text x="70" y="585" fill="#A1A1AA" font-family="Arial, Helvetica, sans-serif" font-size="24">Software Developer . Product Builder . Multiplayer Experiments</text>
  <circle cx="1048" cy="517" r="44" fill="#FFFFFF" fill-opacity="0.08" stroke="#FFFFFF" stroke-opacity="0.18"/>
  <text x="1048" y="528" text-anchor="middle" fill="#FFFFFF" font-family="Courier New, monospace" font-size="28" font-weight="700">TK</text>
</svg>
