<svg xmlns="http://www.w3.org/2000/svg" width="1200" height="630" viewBox="0 0 1200 630">
  <defs>
    <linearGradient id="bg" x1="0" y1="0" x2="1" y2="1">
      <stop offset="0" stop-color="#0a0a0a"/>
      <stop offset="0.45" stop-color="#111827"/>
      <stop offset="1" stop-color="#0b1220"/>
    </linearGradient>
    <radialGradient id="glow1" cx="25%" cy="25%" r="60%">
      <stop offset="0" stop-color="#d946ef" stop-opacity="0.35"/>
      <stop offset="1" stop-color="#d946ef" stop-opacity="0"/>
    </radialGradient>
    <radialGradient id="glow2" cx="80%" cy="30%" r="60%">
      <stop offset="0" stop-color="#0ea5e9" stop-opacity="0.30"/>
      <stop offset="1" stop-color="#0ea5e9" stop-opacity="0"/>
    </radialGradient>
    <radialGradient id="glow3" cx="55%" cy="85%" r="70%">
      <stop offset="0" stop-color="#22c55e" stop-opacity="0.22"/>
      <stop offset="1" stop-color="#22c55e" stop-opacity="0"/>
    </radialGradient>
  </defs>

  <rect width="1200" height="630" fill="url(#bg)"/>
  <rect width="1200" height="630" fill="url(#glow1)"/>
  <rect width="1200" height="630" fill="url(#glow2)"/>
  <rect width="1200" height="630" fill="url(#glow3)"/>

  <g opacity="0.22" stroke="#ffffff">
    <path d="M0 120H1200" stroke-width="1" opacity="0.08"/>
    <path d="M0 220H1200" stroke-width="1" opacity="0.07"/>
    <path d="M0 320H1200" stroke-width="1" opacity="0.06"/>
    <path d="M0 420H1200" stroke-width="1" opacity="0.05"/>
    <path d="M120 0V630" stroke-width="1" opacity="0.06"/>
    <path d="M320 0V630" stroke-width="1" opacity="0.05"/>
    <path d="M520 0V630" stroke-width="1" opacity="0.04"/>
    <path d="M720 0V630" stroke-width="1" opacity="0.04"/>
    <path d="M920 0V630" stroke-width="1" opacity="0.05"/>
  </g>

  <g font-family="Instrument Sans, ui-sans-serif, system-ui, -apple-system, Segoe UI, Arial" fill="#fff">
    <text x="96" y="248" font-size="56" font-weight="700">Timurhan Kaya</text>
    <text x="96" y="308" font-size="28" font-weight="500" fill="#d4d4d8">Software Developer - Laravel - Livewire - UX</text>

    <g transform="translate(96, 360)">
      <rect x="0" y="0" rx="18" ry="18" width="420" height="64" fill="#ffffff" opacity="0.08"/>
      <text x="26" y="42" font-size="22" font-weight="600" fill="#f4f4f5">Portfolio + Games (Imposter)</text>
    </g>
  </g>
</svg>

